<svg xmlns="http://www.w3.org/2000/svg" width="1600" height="900" viewBox="0 0 1600 900" role="img" aria-label="Numerology article-life-path-calculator-how-to-use.svg visual">
  <defs>
    <linearGradient id="g" x1="0" x2="1" y1="0" y2="1">
      <stop offset="0" stop-color="#f2eee6"/>
      <stop offset=".48" stop-color="#fffaf1"/>
      <stop offset="1" stop-color="#20324a"/>
    </linearGradient>
    <pattern id="p" width="88" height="88" patternUnits="userSpaceOnUse">
      <path d="M0 44h88M44 0v88" stroke="#b8894d" stroke-width="3" opacity=".16"/>
      <circle cx="44" cy="44" r="22" fill="none" stroke="#6e2f45" stroke-width="2" opacity=".12"/>
    </pattern>
  </defs>
  <rect width="1600" height="900" fill="url(#g)"/>
  <rect width="1600" height="900" fill="url(#p)"/>
  <path d="M0 735C240 650 430 700 620 625c230-92 420-250 710-175 116 30 201 86 270 145v305H0Z" fill="#20324a" opacity=".18"/>
  <path d="M120 710C340 590 510 630 720 520c240-126 520-130 760 18" stroke="#6e2f45" stroke-width="18" stroke-linecap="round" opacity=".22" fill="none"/>
  <path d="M1100 90l120 60-120 60-120-60Z" fill="#b8894d" opacity=".7"/><path d="M980 150h240" stroke="#6e2f45" stroke-width="12" opacity=".45"/>
  <g transform="translate(120 190)">
    <rect x="0" y="0" width="710" height="385" rx="34" fill="#ffffff" opacity=".78"/>
    <rect x="28" y="28" width="654" height="329" rx="24" fill="#f2eee6" opacity=".72"/>
    <text x="56" y="116" font-family="Georgia, serif" font-size="64" fill="#20324a" font-weight="700">Numerology</text>
    <text x="58" y="178" font-family="Arial, sans-serif" font-size="28" fill="#6e2f45" opacity=".85">How to Use the Life Path Number Calculator</text>
    <path d="M58 238h360" stroke="#b8894d" stroke-width="10" stroke-linecap="round"/>
    <circle cx="92" cy="296" r="28" fill="#b8894d" opacity=".82"/>
    <circle cx="172" cy="296" r="28" fill="#20324a" opacity=".78"/>
    <circle cx="252" cy="296" r="28" fill="#6e2f45" opacity=".58"/>
  </g>
</svg>